<?xml version='1.0' encoding='utf-8'?>
<!DOCTYPE svg PUBLIC '-//W3C//DTD SVG 1.1//EN' 'http://www.w3.org/Graphics/SVG/1.1/DTD/svg11.dtd'>
<svg width="64" version="1.1" xmlns="http://www.w3.org/2000/svg" height="64" viewBox="0 0 64 64" xmlns:xlink="http://www.w3.org/1999/xlink" enable-background="new 0 0 64 64">
  <g>
    <g fill="#fff">
      <path d="m38.719,14.973c-0.781-0.781-2.046-0.781-2.828,0l-15.879,15.88c-0.207,0.204-0.375,0.481-0.477,0.755-0.266,0.73-0.086,1.551 0.465,2.102l15.879,15.879c0.391,0.392 0.902,0.586 1.414,0.586s1.023-0.194 1.415-0.586c0.78-0.781 0.78-2.046 0-2.827l-14.473-14.477 14.483-14.484c0.782-0.781 0.782-2.047 0.001-2.828z"/>
      <path d="m32,.021c-17.645,0-32,14.354-32,32 0,17.645 14.355,32 32,32s32-14.355 32-32c0-17.645-14.355-32-32-32zm0,60c-15.438,0-28-12.561-28-28s12.562-28 28-28c15.439,0 28,12.561 28,28s-12.561,28-28,28z"/>
    </g>
  </g>
</svg>
